/* XPM */
static char *_930b50daaf549bac1ce226672596257GJwLQBm1nPMcIa6c[] = {
/* columns rows colors chars-per-pixel */
"32 32 5 1 ",
"  c None",
". c #385903",
"X c #4B750F",
"o c #588C14",
"O c #92B063",
/* pixels */
"               ..               ",
"             ..XX..             ",
"           ..XXXXXX..           ",
"         ..XXXXXXXXXX..         ",
"       ..XXXXXXXXXXXXXX..       ",
"     ..XXXXXXXXXXXXXXXXXX..     ",
"   ..XXXXXXXXXXXXXXXXXXXXXX..   ",
" ..XXXXXXXXXXXXXXXXXXXXXXXXXX.. ",
"OXXXXXXXXXXXXXXXXXXXXXXXXXXXXXX.",
".OOXXXXXXXXXXXXXXXXXXXXXXXXXXOO.",
"...OOXXXXXXXXXXXXXXXXXXXXXXOOoo.",
".....OOXXXXXXXXXXXXXXXXXXOOoooo.",
".......OOXXXXXXXXXXXXXXOOoooooo.",
".........OOXXXXXXXXXXOOoooooooo.",
"...........OOXXXXXXOOoooooooooo.",
".............OOXXOOoooooooooooo.",
"...............OOoooooooooooooo.",
"................Ooooooooooooooo.",
"................Ooooooooooooooo.",
"................Ooooooooooooooo.",
"................Ooooooooooooooo.",
"................Ooooooooooooooo.",
"................Ooooooooooooooo.",
"................Ooooooooooooooo.",
" ...............Ooooooooooooo.. ",
"   .............Ooooooooooo..   ",
"     ...........Ooooooooo..     ",
"       .........Ooooooo..       ",
"         .......Ooooo..         ",
"           .....Ooo..           ",
"             ...O..             ",
"               ..               "
};
