/* XPM */
static char *_f9678d37bff4fc99c1c1d14ef4bd188F5XtL4KWx8uRVAvT[] = {
/* columns rows colors chars-per-pixel */
"32 32 2 1 ",
"  c None",
". c #385903",
/* pixels */
"               ..               ",
"             ..  ..             ",
"           ..      ..           ",
"         ..          ..         ",
"       ..              ..       ",
"     ..                  ..     ",
"   ..                      ..   ",
" ..                          .. ",
".                              .",
" ..                          .. ",
"   ..                      ..   ",
"     ..                  ..     ",
"       ..              ..       ",
"         ..          ..         ",
"           ..      ..           ",
"             ..  ..             ",
"               ..               ",
"                                ",
"                                ",
"                                ",
"                                ",
"                                ",
"                                ",
"                                ",
"                                ",
"                                ",
"                                ",
"                                ",
"                                ",
"                                ",
"                                ",
"                                "
};
