/* XPM */
static char * C:\Users\andre\Documents\cursor\cursor_north_west_xpm[] = {
"9 9 8 1",
" 	c None",
".	c #E6E1E1",
"+	c #C0C0C0",
"@	c #551C1C",
"#	c #421010",
"$	c #7C7C7C",
"%	c #310909",
"&	c #575555",
"         ",
" .+      ",
" +@@+    ",
"  @@@++  ",
"  +@###+$",
"   +#+%%&",
"   +#%$% ",
"    +%%%$",
"    $& $&"};
