/* XPM */
static char * C:\Users\andre\Documents\cursor\cursor_south_xpm[] = {
"7 11 8 1",
" 	c None",
".	c #E6E1E1",
"+	c #C0C0C0",
"@	c #551C1C",
"#	c #421010",
"$	c #310909",
"%	c #7C7C7C",
"&	c #575555",
"   .   ",
"  +@+  ",
".+@##++",
".@#.#$%",
" .#+$% ",
" +##$% ",
" +##$& ",
" +##$& ",
"  +$&  ",
"  +$%  ",
"   %   "};
