/* XPM */
static char * C:\Users\andre\Documents\cursor\cursor_east_xpm[] = {
"11 7 8 1",
" 	c None",
".	c #E6E1E1",
"+	c #551C1C",
"@	c #C0C0C0",
"#	c #421010",
"$	c #310909",
"%	c #7C7C7C",
"&	c #575555",
"  ..       ",
"  .+@@@@   ",
" .++####@@ ",
"@++.@##$$$%",
" @###$$$&& ",
"  @#%%&&   ",
"  @%       "};
