/* XPM */
static char * C:\Users\andre\Documents\cursor\cursor_west_xpm[] = {
"11 7 8 1",
" 	c None",
".	c #C0C0C0",
"+	c #E6E1E1",
"@	c #421010",
"#	c #551C1C",
"$	c #7C7C7C",
"%	c #310909",
"&	c #575555",
"       ..  ",
"   ++..@.  ",
" ++###@@@. ",
".##@@@.$%%$",
" ..@@%%%%& ",
"   ..$$%&  ",
"       &&  "};
