/* XPM */
static char * C:\Users\andre\Documents\cursor_up_xpm[] = {
"7 11 9 1",
" 	c None",
".	c #E6E1E1",
"+	c #551C1C",
"@	c #C0C0C0",
"#	c #D1D1D1",
"$	c #421010",
"%	c #7C7C7C",
"&	c #310909",
"*	c #575555",
"   .   ",
"  .+@  ",
"  #+@  ",
" #+$$@ ",
" #+$$@ ",
" @+$$@ ",
" @+@$% ",
"@+$@$&%",
"@@$$&%*",
"  @&*  ",
"   %   "};
