/* XPM */
static char * C:\Users\andre\Documents\face_xpm[] = {
"64 32 48 1",
" 	c None",
".	c #5A5A5A",
"+	c #5A5A63",
"@	c #393939",
"#	c #8C5231",
"$	c #8C5A39",
"%	c #7B7B7B",
"&	c #7B7B84",
"*	c #CE7B52",
"=	c #CE7B4A",
"-	c #F77B18",
";	c #63635A",
">	c #FFBD21",
",	c #181818",
"'	c #C6C6BD",
")	c #845A39",
"!	c #C6BDC6",
"~	c #8B5A39",
"{	c #CD7B4A",
"]	c #BDBDC6",
"^	c #000000",
"/	c #BDC6BD",
"(	c #F7AD7B",
"_	c #EFAD73",
":	c #C6C6C6",
"<	c #EFAD7B",
"[	c #F7BDA5",
"}	c #F7BD9C",
"|	c #F7E7D6",
"1	c #F7DECE",
"2	c #EFBD9C",
"3	c #F7DED6",
"4	c #F7C69C",
"5	c #EFE7D6",
"6	c #635A5A",
"7	c #8C5A31",
"8	c #423939",
"9	c #393942",
"0	c #847B7B",
"a	c #845231",
"b	c #EFBDA5",
"c	c #BDBDBD",
"d	c #EFE7CE",
"e	c #F7E7CE",
"f	c #EFDED6",
"g	c #EFC69C",
"h	c #F7C6A5",
"i	c #847B84",
"                                                                ",
"          ..+@@@#$#$#$                    ..+@@@$$$$$$          ",
"        %&.@@$#*=-----=$                %&.@@$$==-----=$        ",
"       %+;@@$=--->>>>>>-               %+;@@$=--->>>>>>-        ",
"       &.,@$=-->>>>>->->#              &.,@$=-->>>>>->->$       ",
"      &;@,@#$#=----*#$=--             &;@,@$$=-----=$$=--       ",
"      '.,,$#$$#$$)-$$@$=-             '.,,$$$$$$$$-$@$$=-       ",
"      !+,#$$=~===*{==*=$-             ];^$$$=$$==$$=-==$-       ",
"      /.,$##$===={(_((=$$             :.,$$$$======<<()$$       ",
"      !+#$#$==*=_([[}[[=#             !.$$$$$===((}}[}(=$       ",
"      /.*#$====_[[[}|12=$             /.=$$-*==(}}2[33}=$       ",
"      :.3,@^$=_[}[45|3_*#             :6$$$<(([}[=$^@,3=$       ",
"     &'7.=$8^$[3[==9,@==$            &'7=@,9==}(=$^8$=.=$       ",
"     ':#(^%+8@#=$^,,60@_$=           '!7@06,,^$==@8+%^(<$*      ",
"     ]0$(^&1!-)_a$^%3!=}#_           ]%$=!3%^$$<=-!1&^(}$<      ",
"     !@$==(((==1(=((}[2*$=           :@$==(((=*b(=<((}}=$=      ",
"     c@#=_33d[=32[}3|e3_[=           c@$=(131}=f[[}3e53(2=      ",
"     :#$=(|}_==3}((453[_=_           '7$=(3[<==3}((g3e}(=<      ",
"     c*$==3(=$#7$a=}4h(=$=           c=$==1(=$$7$)=}(}<=$=      ",
"     &_##=[=)*==_[_=[(=*#            %<$$=2=)===(<(=}(==$       ",
"      *$$=2=__[_f}(=[_=_$             =$$=2=<<2(1h(=2(=<$       ",
"      %$#=[=^#===#@=}(((              6$$=}=^$===#^=}((<        ",
"       =$==(}[[f32__[(}=               =$$*([2[ff[(<2(}=        ",
"       *@$====(((([}[}_=               =$$====((((2}}}(=        ",
"       .*$#=(3}}}g3|2(=#               .=$$=(1}}}}33h(=$        ",
"       &@=$$=[_=(}h}_=$*               %@=$$=}(=(}4}(=$=        ",
"       0,@=#$#=======#=2               %,@=$$$===*===$#[        ",
"       i9^@$#$#$$#$$$=[[               %@,,$$$$$$$$$$=4[        ",
"       0@,@.9^,^,^$7=[2(               i@,8.,,^,^,$7#[[(        ",
"       @.,@&9,,,,$=f[_2=               @.,9%8,,,,$=34(}=        ",
"       @+,@.099$*(3=a*(#               @.,@6&@@$=(3=)=($        ",
"        @,,@.+$*}(=+==#                 8,,9..$=2(=.==$         "};
