/* XPM */
static char * C:\Users\andre\Documents\health_bar_xpm[] = {
"64 16 19 1",
" 	c None",
".	c #BEBEBE",
"+	c #BDBDBD",
"@	c #7C7C7C",
"#	c #7E7E7E",
"$	c #807F7F",
"%	c #575555",
"&	c #320C0C",
"*	c #310909",
"=	c #421010",
"-	c #575656",
";	c #000000",
">	c #551C1C",
",	c #561F1F",
"'	c #551D1D",
")	c #320909",
"!	c #5D2020",
"~	c #BFBFBF",
"{	c #7D7D7D",
".........++++++++..++@##$$$######$$#@@@@@@@@@@@@@@@@@@@@@@@@@@@%",
".+@@@@@@@@@@@@++.&%****======================================@*%",
".-;;;;;;;;;;;;-+%%%*===>>>>>>>>>>>>>>>>>>>>>>>>>>>>>>>,'>>>>=%%%",
".-;;;;;;;;;;;;-+***=>>>>>>>>>>>>>>>>>>>>>>>>>>>>>>>>>>>>>>>>==*%",
".-;;;;;;;;;;;;-@)==>>!!!!!!!!!!!!!!!!!!!!!!!!!!!!!!!!!!!!!!>>>!%",
".-;;;;;;;;;;;;-@)>>>>~~~~~~~~~~~...........................!>>!%",
"@-;;;;;;;;;;;;-@=>>>~;;;;;;;;;;;;;;;;;;;;;;;;;;;;;;;;;;;;;;@=>!%",
"@-;;;;;;;;;;;;-@=>>>~;;;;;;;;;;;;;;;;;;;;;;;;;;;;;;;;;;;;;;@=>!%",
"@-;;;;;;;;;;;;-@=>>>{;;;;;;;;;;;;;;;;;;;;;;;;;;;;;;;;;;;;;;-=>!@",
"@-;;;;;;;;;;;;-@>>>>{;;;;;;;;;;;;;;;;;;;;;;;;;;;;;;;;;;;;;;-=>!@",
"@-;;;;;;;;;;;;-@>>>>>@-------------------------------------)>>!@",
"@-;;;;;;;;;;;;-@>>>>>>>>>>>>>>>>>>>>>>>>>==================>>>!@",
"@-;;;;;;;;;;;;-@>>>>>>>>>>>>>>>>>>>>>>>>>>>>>>>>>>>>>>>>>>>>!!!@",
"@-;;;;;;;;;;;;-@%%%>>>>>>>>>>>>>>>>>>>>>>>>>!!!!>>>>>>>>>>>>!@@%",
"@@------------@@%*%!!!!!!!!!!!!!!!!!!!!!!!!!!!!!!!!!!!!!!!!!!@*%",
"@@@@@@@@@@@@@@%%%%%%%%%%%%%%%%%%@@@@@@@@@@@@@@@@%%%%%%%%%%%@@%%%"};
