/* XPM */
static char * C:\Users\andre\Desktop\cursor_east_xpm[] = {
"14 14 7 1",
" 	c None",
".	c #000000",
"+	c #421010",
"@	c #310909",
"#	c #C0C0C0",
"$	c #7C7C7C",
"%	c #575555",
".......++@#$$%",
".......++@#$$%",
".......++@#$$%",
".......++@#$$%",
".......++@#$$%",
".......++@#$$%",
".......++@#$$%",
"++++++++@#$$$%",
"+++++++@#$$$$%",
"@@@@@@@#$$@$$%",
"#######$$@+@$%",
"$$$$$$$$$$@$$%",
"$$$$$$$$$$$$%%",
"%%%%%%%%%%%%%%"};
